<svg height="44" viewBox="0 0 35 44" width="35" xmlns="http://www.w3.org/2000/svg"><path d="m28.9819 17.1758h1.008v3.504h.094c.316-.697.978-1.108 1.945-1.108 1.336 0 2.18.856 2.18 2.338v4.09h-1.008v-3.844c0-1.119-.504-1.675-1.459-1.675-1.131 0-1.752.715-1.752 1.781v3.738h-1.008zm-2.42 4.441c-.164-.627-.721-1.136-1.629-1.136-1.137 0-1.852.908-1.852 2.338 0 1.459.727 2.384 1.852 2.384.849 0 1.441-.392 1.629-1.107h1.019c-.182 1.16-1.125 2.016-2.642 2.016-1.77 0-2.901-1.284-2.901-3.293 0-1.969 1.125-3.247 2.895-3.247 1.535 0 2.472.92 2.648 2.045zm-6.533-3.568v1.635h1.407v.844h-1.407v3.574c0 .744.282 1.06.938 1.06.182 0 .281-.006.469-.023v.85c-.2.035-.393.058-.592.058-1.301 0-1.822-.48-1.822-1.687v-3.832h-1.02v-.844h1.02v-1.635zm-4.2 5.596v-.58l-1.699.111c-.961.064-1.383.398-1.383 1.031 0 .645.545 1.02 1.277 1.02 1.038 0 1.805-.68 1.805-1.582zm-4.125.586c0-1.131.832-1.782 2.303-1.869l1.822-.112v-.574c0-.779-.486-1.207-1.43-1.207-.755 0-1.283.287-1.423.785h-1.02c.135-1.014 1.131-1.682 2.479-1.682 1.541 0 2.402.792 2.402 2.104v4.324h-.961v-.931h-.094c-.41.673-1.101 1.043-1.945 1.043-1.225 0-2.133-.727-2.133-1.881zm-7.684 1.769h-.996l-2.303-8.455h1.101l1.682 6.873h.07l1.893-6.873h1.066l1.893 6.873h.07l1.682-6.873h1.101l-2.302 8.455h-.996l-1.946-6.674h-.07z" fill="#fff" fill-rule="evenodd"/></svg>