<svg height="44" viewBox="0 0 38 44" width="38" xmlns="http://www.w3.org/2000/svg"><path d="m32.7129 22.3203h3.48c-.023-1.119-.691-1.857-1.693-1.857-1.008 0-1.711.738-1.787 1.857zm4.459 2.045c-.293 1.078-1.277 1.746-2.66 1.746-1.752 0-2.848-1.266-2.848-3.264 0-1.986 1.113-3.275 2.848-3.275 1.705 0 2.742 1.213 2.742 3.176v.386h-4.541v.047c.053 1.248.75 2.039 1.822 2.039.815 0 1.366-.298 1.629-.855zm-12.282-4.682h.961v.996h.094c.316-.697.932-1.107 1.898-1.107 1.418 0 2.209.838 2.209 2.338v4.09h-1.007v-3.844c0-1.137-.481-1.676-1.489-1.676s-1.658.674-1.658 1.781v3.739h-1.008zm-2.499 3.158c0-1.5-.674-2.361-1.869-2.361-1.196 0-1.87.861-1.87 2.361 0 1.495.674 2.362 1.87 2.362 1.195 0 1.869-.867 1.869-2.362zm-4.782 0c0-2.033 1.114-3.269 2.913-3.269 1.798 0 2.912 1.236 2.912 3.269 0 2.028-1.114 3.27-2.912 3.27-1.799 0-2.913-1.242-2.913-3.27zm-6.636-5.666h1.008v3.504h.093c.317-.697.979-1.107 1.946-1.107 1.336 0 2.179.855 2.179 2.338v4.09h-1.007v-3.844c0-1.119-.504-1.676-1.459-1.676-1.131 0-1.752.715-1.752 1.781v3.739h-1.008zm-6.015 4.87h1.863c1.202 0 1.899-.645 1.899-1.764 0-1.16-.674-1.799-1.899-1.799h-1.863zm2.139-4.5c1.599 0 2.707 1.125 2.707 2.736 0 1.582-1.131 2.701-2.719 2.701h-2.127v3.018h-1.055v-8.455zm-6.114 8.454h1.008v-6.316h-1.008zm-.2-8.238c0-.386.317-.703.703-.703.387 0 .704.317.704.703 0 .387-.317.704-.704.704-.386 0-.703-.317-.703-.704z" fill="#fff" fill-rule="evenodd"/></svg>