<svg enable-background="new 0 0 67 44" height="44" viewBox="0 0 67 44" width="67" xmlns="http://www.w3.org/2000/svg"><path d="m5.6603 23.5715h-3.3633l-.8496 2.4199h-1.1074l3.1172-8.4551h1.043l3.1172 8.4551h-1.1075zm-3.0527-.8965h2.7422l-1.3242-3.7734h-.0938zm10.0986-1.0664c-.1641-.627-.7207-1.1367-1.6289-1.1367-1.1367 0-1.8516.9082-1.8516 2.3379 0 1.459.7266 2.3848 1.8516 2.3848.8496 0 1.4414-.3926 1.6289-1.1074h1.0195c-.1816 1.1602-1.125 2.0156-2.6426 2.0156-1.7695 0-2.9004-1.2832-2.9004-3.293 0-1.9688 1.125-3.2461 2.8945-3.2461 1.5352 0 2.4727.9199 2.6484 2.0449zm6.5947 0c-.1641-.627-.7207-1.1367-1.6289-1.1367-1.1367 0-1.8516.9082-1.8516 2.3379 0 1.459.7266 2.3848 1.8516 2.3848.8496 0 1.4414-.3926 1.6289-1.1074h1.0195c-.1816 1.1602-1.125 2.0156-2.6426 2.0156-1.7695 0-2.9004-1.2832-2.9004-3.293 0-1.9688 1.125-3.2461 2.8945-3.2461 1.5352 0 2.4727.9199 2.6484 2.0449zm7.5796 2.748c-.293 1.0781-1.2773 1.7461-2.6602 1.7461-1.752 0-2.8477-1.2656-2.8477-3.2637 0-1.9863 1.1133-3.2754 2.8477-3.2754 1.7051 0 2.7422 1.2129 2.7422 3.1758v.3867h-4.541v.0469c.0527 1.248.75 2.0391 1.8223 2.0391.8145 0 1.3652-.2988 1.6289-.8555zm-4.459-2.0449h3.4805c-.0234-1.1191-.6914-1.8574-1.6934-1.8574-1.0078 0-1.7109.7383-1.7871 1.8574zm8.212-2.748c1.3242 0 2.2441.6562 2.3789 1.6934h-.9961c-.1348-.5039-.627-.8379-1.3887-.8379-.75 0-1.3359.3809-1.3359.9434 0 .4336.3516.7031 1.0957.8848l.9727.2344c1.1895.2871 1.7637.8027 1.7637 1.7109 0 1.1309-1.0957 1.9102-2.5312 1.9102-1.4062 0-2.373-.6738-2.4844-1.7227h1.0371c.1699.5332.6738.873 1.4824.873.8496 0 1.459-.4043 1.459-.9844 0-.4336-.3281-.7266-1.002-.8906l-1.084-.2637c-1.1836-.2871-1.7227-.7969-1.7227-1.7109 0-1.0489 1.0137-1.8399 2.3555-1.8399zm6.0439 0c1.3242 0 2.2441.6562 2.3789 1.6934h-.9961c-.1348-.5039-.627-.8379-1.3887-.8379-.75 0-1.3359.3809-1.3359.9434 0 .4336.3516.7031 1.0957.8848l.9727.2344c1.1895.2871 1.7637.8027 1.7637 1.7109 0 1.1309-1.0957 1.9102-2.5312 1.9102-1.4062 0-2.373-.6738-2.4844-1.7227h1.0371c.1699.5332.6738.873 1.4824.873.8496 0 1.459-.4043 1.459-.9844 0-.4336-.3281-.7266-1.002-.8906l-1.084-.2637c-1.1836-.2871-1.7227-.7969-1.7227-1.7109 0-1.0489 1.0137-1.8399 2.3555-1.8399zm3.6357 3.2695c0-2.0332 1.1133-3.2695 2.9121-3.2695s2.9121 1.2363 2.9121 3.2695c0 2.0273-1.1133 3.2695-2.9121 3.2695s-2.9121-1.2422-2.9121-3.2695zm4.7813 0c0-1.5-.6738-2.3613-1.8691-2.3613s-1.8691.8613-1.8691 2.3613c0 1.4941.6738 2.3613 1.8691 2.3613s1.8691-.8672 1.8691-2.3613zm2.5054-3.1582h.9609v.9375h.0938c.1875-.6152.9141-1.0488 1.752-1.0488.1641 0 .375.0117.5039.0293v1.0078c-.082-.0234-.4453-.0586-.6445-.0586-.9609 0-1.6582.6445-1.6582 1.5352v3.9141h-1.0078v-6.3165zm4.2744-1.9219c0-.3867.3164-.7031.7031-.7031s.7031.3164.7031.7031-.3164.7031-.7031.7031-.7031-.3164-.7031-.7031zm.1992 1.9219h1.0078v6.3164h-1.0078zm8.001 4.6816c-.293 1.0781-1.2773 1.7461-2.6602 1.7461-1.752 0-2.8477-1.2656-2.8477-3.2637 0-1.9863 1.1133-3.2754 2.8477-3.2754 1.7051 0 2.7422 1.2129 2.7422 3.1758v.3867h-4.541v.0469c.0527 1.248.75 2.0391 1.8223 2.0391.8145 0 1.3652-.2988 1.6289-.8555zm-4.459-2.0449h3.4805c-.0234-1.1191-.6914-1.8574-1.6934-1.8574-1.0078 0-1.7109.7383-1.7871 1.8574zm8.2119-2.748c1.3242 0 2.2441.6562 2.3789 1.6934h-.9961c-.1348-.5039-.627-.8379-1.3887-.8379-.75 0-1.3359.3809-1.3359.9434 0 .4336.3516.7031 1.0957.8848l.9727.2344c1.1895.2871 1.7637.8027 1.7637 1.7109 0 1.1309-1.0957 1.9102-2.5312 1.9102-1.4062 0-2.373-.6738-2.4844-1.7227h1.0371c.1699.5332.6738.873 1.4824.873.8496 0 1.459-.4043 1.459-.9844 0-.4336-.3281-.7266-1.002-.8906l-1.084-.2637c-1.1836-.2871-1.7227-.7969-1.7227-1.7109 0-1.0489 1.0137-1.8399 2.3555-1.8399z" fill="#fff"/><path d="m0 0h67v44h-67z" fill="none"/></svg>