<svg xmlns="http://www.w3.org/2000/svg" width="80" height="44" viewBox="0 0 80 44">
  <g fill="none" fill-rule="evenodd">
    <rect width="80" height="44"/>
    <path fill="#FFF" fill-rule="nonzero" d="M8.89,21.77 C8.89,24.47 7.43,26.2 5.01,26.2 C2.58,26.2 1.13,24.48 1.13,21.77 C1.13,19.05 2.62,17.3499566 5.01,17.3499566 C7.41,17.34 8.89,19.06 8.89,21.77 Z M2.22,21.77 C2.22,23.87 3.26,25.23 5.01,25.23 C6.74,25.23 7.8,23.87 7.8,21.77 C7.8,19.65 6.73,18.32 5.01,18.32 C3.29,18.32 2.22,19.65 2.22,21.77 Z M10.59,19.68 L11.55,19.68 L11.55,20.68 L11.64,20.68 C11.96,19.98 12.57,19.57 13.54,19.57 C14.96,19.57 15.75,20.41 15.75,21.91 L15.75,26 L14.74,26 L14.74,22.16 C14.74,21.02 14.26,20.48 13.25,20.48 C12.24,20.48 11.59,21.15 11.59,22.26 L11.59,26 L10.58,26 L10.58,19.68 L10.59,19.68 Z M17.65,17.17 L18.66,17.17 L18.66,26 L17.65,26 L17.65,17.17 Z M20.7,28.25 L20.7,27.39 C20.82,27.41 20.98,27.42 21.12,27.42 C21.7,27.42 22.02,27.14 22.28,26.38 L22.4,26 L20.06,19.68 L21.15,19.68 L22.88,24.88 L22.97,24.88 L24.7,19.68 L25.77,19.68 L23.3,26.38 C22.76,27.84 22.26,28.28 21.14,28.28 C21.02,28.28 20.84,28.27 20.7,28.25 Z M30.2,22.84 C30.2,20.81 31.31,19.57 33.11,19.57 C34.91,19.57 36.02,20.81 36.02,22.84 C36.02,24.87 34.91,26.11 33.11,26.11 C31.31,26.11 30.2,24.87 30.2,22.84 Z M34.98,22.84 C34.98,21.34 34.31,20.48 33.11,20.48 C31.91,20.48 31.24,21.34 31.24,22.84 C31.24,24.33 31.91,25.2 33.11,25.2 C34.31,25.2 34.98,24.33 34.98,22.84 Z M37.61,19.68 L38.57,19.68 L38.57,20.68 L38.66,20.68 C38.98,19.98 39.59,19.57 40.56,19.57 C41.98,19.57 42.77,20.41 42.77,21.91 L42.77,26 L41.76,26 L41.76,22.16 C41.76,21.02 41.28,20.48 40.27,20.48 C39.26,20.48 38.61,21.15 38.61,22.26 L38.61,26 L37.6,26 L37.61,19.68 L37.61,19.68 Z M52.77,23.58 L49.41,23.58 L48.56,26 L47.45,26 L50.57,17.54 L51.61,17.54 L54.73,26 L53.62,26 L52.77,23.58 Z M49.72,22.68 L52.46,22.68 L51.14,18.91 L51.05,18.91 L49.72,22.68 Z M61.81,22.84 C61.81,24.81 60.76,26.11 59.16,26.11 C58.26,26.11 57.53,25.72 57.19,25.05 L57.1,25.05 L57.1,28.11 L56.09,28.11 L56.09,19.68 L57.05,19.68 L57.05,20.73 L57.14,20.73 C57.54,20 58.3,19.56 59.16,19.56 C60.77,19.57 61.81,20.85 61.81,22.84 Z M60.77,22.84 C60.77,21.36 60.08,20.48 58.92,20.48 C57.78,20.48 57.06,21.39 57.06,22.84 C57.06,24.29 57.78,25.2 58.92,25.2 C60.08,25.2 60.77,24.32 60.77,22.84 Z M69.12,22.84 C69.12,24.81 68.07,26.11 66.47,26.11 C65.57,26.11 64.84,25.72 64.5,25.05 L64.4,25.05 L64.4,28.11 L63.39,28.11 L63.39,19.68 L64.35,19.68 L64.35,20.73 L64.44,20.73 C64.84,20 65.6,19.56 66.46,19.56 C68.08,19.57 69.12,20.85 69.12,22.84 Z M68.08,22.84 C68.08,21.36 67.39,20.48 66.23,20.48 C65.09,20.48 64.37,21.39 64.37,22.84 C64.37,24.29 65.09,25.2 66.23,25.2 C67.39,25.2 68.08,24.32 68.08,22.84 Z M70.77,17.17 L71.78,17.17 L71.78,26 L70.77,26 L70.77,17.17 Z M78.92,24.36 C78.63,25.44 77.64,26.11 76.26,26.11 C74.51,26.11 73.41,24.84 73.41,22.85 C73.41,20.86 74.52,19.57 76.26,19.57 C77.97,19.57 79,20.78 79,22.75 L79,23.14 L74.46,23.14 L74.46,23.19 C74.51,24.44 75.21,25.23 76.28,25.23 C77.09,25.23 77.65,24.93 77.91,24.37 L78.92,24.36 L78.92,24.36 Z M74.46,22.32 L77.94,22.32 C77.92,21.2 77.25,20.46 76.25,20.46 C75.24,20.46 74.54,21.2 74.46,22.32 Z"/>
  </g>
</svg>
