<svg enable-background="new 0 0 23 44" height="44" viewBox="0 0 23 44" width="23" xmlns="http://www.w3.org/2000/svg"><path d="m8.1558 25.9987v-6.457h-.0703l-2.666 6.457h-.8907l-2.666-6.457h-.0703v6.457h-.9844v-8.4551h1.2246l2.8945 7.0547h.0938l2.8945-7.0547h1.2246v8.4551zm2.5166-1.7696c0-1.1309.832-1.7812 2.3027-1.8691l1.8223-.1113v-.5742c0-.7793-.4863-1.207-1.4297-1.207-.7559 0-1.2832.2871-1.4238.7852h-1.0195c.1348-1.0137 1.1309-1.6816 2.4785-1.6816 1.541 0 2.4023.791 2.4023 2.1035v4.3242h-.9609v-.9318h-.0938c-.4102.6738-1.1016 1.043-1.9453 1.043-1.2246 0-2.1328-.7266-2.1328-1.8809zm4.125-.5859v-.5801l-1.6992.1113c-.9609.0645-1.3828.3984-1.3828 1.0312 0 .6445.5449 1.0195 1.2773 1.0195 1.0371.0001 1.8047-.6796 1.8047-1.5819zm6.958-2.0273c-.1641-.627-.7207-1.1367-1.6289-1.1367-1.1367 0-1.8516.9082-1.8516 2.3379 0 1.459.7266 2.3848 1.8516 2.3848.8496 0 1.4414-.3926 1.6289-1.1074h1.0195c-.1816 1.1602-1.125 2.0156-2.6426 2.0156-1.7695 0-2.9004-1.2832-2.9004-3.293 0-1.9688 1.125-3.2461 2.8945-3.2461 1.5352 0 2.4727.9199 2.6484 2.0449z" fill="#fff"/><path d="m0 0h23v44h-23z" fill="none"/></svg>