<svg xmlns="http://www.w3.org/2000/svg" width="30" height="44" viewBox="0 0 30 44">
  <path fill="#FFF" fill-rule="evenodd" d="M26.5679,20.4629 C27.5699,20.4629 28.2379,21.2009 28.2609,22.3199 L24.7809,22.3199 C24.8569,21.2009 25.5599,20.4629 26.5679,20.4629 L26.5679,20.4629 Z M29.3219,23.1349 L29.3219,22.7479 C29.3219,20.7849 28.2849,19.5719 26.5799,19.5719 C24.8449,19.5719 23.7319,20.8609 23.7319,22.8479 C23.7319,24.8459 24.8279,26.1109 26.5799,26.1109 C27.9629,26.1109 28.9469,25.4429 29.2399,24.3649 L28.2319,24.3649 C27.9679,24.9219 27.4179,25.2209 26.6029,25.2209 C25.5309,25.2209 24.8339,24.4299 24.7809,23.1819 L24.7809,23.1349 L29.3219,23.1349 Z M19.7749,19.6839 L20.7349,19.6839 L20.7349,20.6209 L20.8289,20.6209 C21.0169,20.0059 21.7429,19.5719 22.5809,19.5719 C22.7449,19.5719 22.9559,19.5839 23.0849,19.6019 L23.0849,20.6089 C23.0029,20.5859 22.6399,20.5509 22.4409,20.5509 C21.4799,20.5509 20.7819,21.6489 20.7819,22.0859 L20.7819,25.9999 L19.7749,25.9999 L19.7749,19.6839 Z M15.5049,25.2029 C14.3099,25.2029 13.6359,24.3359 13.6359,22.8419 C13.6359,21.3419 14.3099,20.4809 15.5049,20.4809 C16.7009,20.4809 17.3749,21.3419 17.3749,22.8419 C17.3749,24.3359 16.7009,25.2029 15.5049,25.2029 L15.5049,25.2029 Z M15.5049,19.5719 C13.7069,19.5719 12.5929,20.8089 12.5929,22.8419 C12.5929,24.8689 13.7069,26.1109 15.5049,26.1109 C17.3039,26.1109 18.4179,24.8689 18.4179,22.8419 C18.4179,20.8089 17.3039,19.5719 15.5049,19.5719 L15.5049,19.5719 Z M10.0269,18.0969 L10.0269,19.7319 L11.4339,19.7319 L11.4339,20.5749 L10.0269,20.5749 L10.0269,24.1499 C10.0269,24.8939 10.3089,25.2099 10.9649,25.2099 C11.1469,25.2099 11.2459,25.2039 11.4339,25.1869 L11.4339,26.0359 C11.2349,26.0709 11.0409,26.0949 10.8419,26.0949 C9.5409,26.0949 9.0199,25.6139 9.0199,24.4069 L9.0199,20.5749 L7.9999,20.5749 L7.9999,19.7319 L9.0199,19.7319 L9.0199,18.0969 L10.0269,18.0969 Z M1.9239,23.7909 C2.0529,24.6759 2.8969,25.2379 4.0979,25.2379 C5.2349,25.2379 6.0729,24.6229 6.0729,23.7849 C6.0729,23.0649 5.5459,22.6079 4.3799,22.3149 L3.2959,22.0329 C1.7659,21.6469 1.1039,20.9549 1.1039,19.7539 C1.1039,18.3179 2.3049,17.3459 4.0919,17.3459 C5.7269,17.3459 6.9459,18.3179 7.0339,19.6839 L5.9729,19.6839 C5.8269,18.8169 5.1119,18.3009 4.0569,18.3009 C2.9319,18.3009 2.1879,18.8629 2.1879,19.7189 C2.1879,20.3809 2.6509,20.7619 3.8169,21.0609 L4.7019,21.2949 C6.4539,21.7339 7.1569,22.4139 7.1569,23.6559 C7.1569,25.2089 5.9319,26.1989 3.9989,26.1989 C2.2059,26.1989 0.9689,25.2499 0.8579,23.7909 L1.9239,23.7909 Z"/>
</svg>
