<svg height="44" viewBox="0 0 44 44" width="44" xmlns="http://www.w3.org/2000/svg"><path d="m42.1206 18.0337v1.635h1.406v.844h-1.406v3.574c0 .744.281 1.06.937 1.06.182 0 .282-.006.469-.023v.849c-.199.036-.392.059-.592.059-1.3 0-1.822-.48-1.822-1.687v-3.832h-1.019v-.844h1.019v-1.635zm-6.131 1.635h.961v.937h.093c.188-.615.914-1.049 1.752-1.049.164 0 .375.012.504.03v1.008c-.082-.024-.445-.059-.644-.059-.961 0-1.659.644-1.659 1.535v3.914h-1.007zm-2.463 3.158c0-1.5-.674-2.361-1.869-2.361s-1.869.861-1.869 2.361c0 1.494.674 2.361 1.869 2.361s1.869-.867 1.869-2.361zm-4.781 0c0-2.033 1.113-3.27 2.912-3.27s2.912 1.237 2.912 3.27c0 2.027-1.113 3.27-2.912 3.27s-2.912-1.243-2.912-3.27zm-2.108 0c0-1.477-.692-2.361-1.846-2.361-1.143 0-1.863.908-1.863 2.361 0 1.447.72 2.361 1.857 2.361 1.16 0 1.852-.884 1.852-2.361zm1.043 0c0 1.975-1.049 3.27-2.655 3.27-.902 0-1.629-.393-1.974-1.061h-.094v3.059h-1.008v-8.426h.961v1.054h.094c.404-.726 1.16-1.166 2.021-1.166 1.612 0 2.655 1.284 2.655 3.27zm-8.048 0c0-1.477-.691-2.361-1.845-2.361-1.143 0-1.864.908-1.864 2.361 0 1.447.721 2.361 1.858 2.361 1.16 0 1.851-.884 1.851-2.361zm1.043 0c0 1.975-1.049 3.27-2.654 3.27-.902 0-1.629-.393-1.975-1.061h-.093v3.059h-1.008v-8.426h.961v1.054h.093c.405-.726 1.161-1.166 2.022-1.166 1.611 0 2.654 1.284 2.654 3.27zm-7.645 3.158h-.961v-.99h-.094c-.316.703-.99 1.102-1.957 1.102-1.418 0-2.156-.844-2.156-2.338v-4.09h1.008v3.844c0 1.136.422 1.664 1.43 1.664 1.113 0 1.722-.663 1.722-1.77v-3.738h1.008zm-11.69-2.209c.129.885.972 1.447 2.174 1.447 1.136 0 1.974-.615 1.974-1.453 0-.72-.527-1.177-1.693-1.47l-1.084-.282c-1.529-.386-2.192-1.078-2.192-2.279 0-1.435 1.202-2.408 2.989-2.408 1.634 0 2.853.973 2.941 2.338h-1.06c-.147-.867-.862-1.383-1.916-1.383-1.125 0-1.87.562-1.87 1.418 0 .662.463 1.043 1.629 1.342l.885.234c1.752.44 2.455 1.119 2.455 2.361 0 1.553-1.224 2.543-3.158 2.543-1.793 0-3.029-.949-3.141-2.408z" fill="#fff" fill-rule="evenodd"/></svg>