<svg height="44" viewBox="0 0 24 44" width="24" xmlns="http://www.w3.org/2000/svg"><path d="m14.9575 23.7002c0 .902-.768 1.582-1.805 1.582-.732 0-1.277-.375-1.277-1.02 0-.632.422-.966 1.383-1.031l1.699-.111zm-1.395-4.072c-1.347 0-2.343.668-2.478 1.681h1.019c.141-.498.668-.785 1.424-.785.944 0 1.43.428 1.43 1.207v.574l-1.822.112c-1.471.088-2.303.738-2.303 1.869 0 1.154.908 1.881 2.133 1.881.844 0 1.535-.369 1.945-1.043h.094v.931h.961v-4.324c0-1.312-.862-2.103-2.403-2.103zm6.769 5.575c-1.155 0-1.846-.885-1.846-2.361 0-1.471.697-2.362 1.846-2.362 1.142 0 1.857.914 1.857 2.362 0 1.459-.709 2.361-1.857 2.361zm1.834-8.027v3.503h-.088c-.358-.691-1.102-1.107-1.981-1.107-1.605 0-2.654 1.289-2.654 3.27 0 1.986 1.037 3.269 2.654 3.269.873 0 1.623-.416 2.022-1.119h.093v1.008h.961v-8.824zm-15.394 4.869h-1.863v-3.563h1.863c1.225 0 1.899.639 1.899 1.799 0 1.119-.697 1.764-1.899 1.764zm.276-4.5h-3.194v8.455h1.055v-3.018h2.127c1.588 0 2.719-1.119 2.719-2.701 0-1.611-1.108-2.736-2.707-2.736zm-6.064 8.454h1.008v-6.316h-1.008zm-.199-8.237c0-.387.316-.704.703-.704s.703.317.703.704c0 .386-.316.703-.703.703s-.703-.317-.703-.703z" fill="#fff" fill-rule="evenodd"/></svg>