<svg enable-background="new 0 0 65 44" height="44" viewBox="0 0 65 44" width="65" xmlns="http://www.w3.org/2000/svg"><path d="m0 0h65v44h-65z" fill="none"/><path d="m4.3755 26v-7.5059h-2.7246v-.9492h6.5039v.9492h-2.7246v7.5059zm7.7314 0-3.1172-8.4551h1.1074l2.4844 7.0898h.0938l2.4844-7.0898h1.1074l-3.1172 8.4551zm13.981-.8438c-.7207.6328-1.7109 1.002-2.7363 1.002-1.6816 0-2.8594-.9961-2.8594-2.4141 0-1.002.5449-1.7637 1.6758-2.3613.0762-.0352.2344-.1172.3281-.1641-.7793-.8203-1.0605-1.3652-1.0605-1.9805 0-1.084.9199-1.8926 2.1562-1.8926 1.248 0 2.1562.7969 2.1562 1.9043 0 .8672-.5215 1.5-1.8281 2.1855l2.1152 2.2734c.2637-.5273.3984-1.2188.3984-2.2734v-.1465h.9844v.1523c0 1.3125-.2344 2.2676-.6973 2.9824l1.4708 1.5764h-1.3242zm-4.541-1.4824c0 .9492.7676 1.5938 1.8984 1.5938.7676 0 1.5586-.3047 2.0215-.791l-2.3906-2.6133c-.0645.0234-.2168.0996-.2988.1406-.8145.4219-1.2305 1.0078-1.2305 1.6699zm3.2109-4.3886c0-.6562-.4746-1.1016-1.1602-1.1016-.6738 0-1.1543.457-1.1543 1.1133 0 .4688.2402.8789.9082 1.541 1.0313-.5274 1.4063-.9492 1.4063-1.5527zm13.5176 6.7148v-3.8496h-4.6406v3.8496h-1.0547v-8.4551h1.0547v3.6562h4.6406v-3.6562h1.0547v8.4551zm2.6455-3.1582c0-2.0332 1.1133-3.2695 2.9121-3.2695s2.9121 1.2363 2.9121 3.2695c0 2.0273-1.1133 3.2695-2.9121 3.2695s-2.9121-1.2422-2.9121-3.2695zm4.7812 0c0-1.5-.6738-2.3613-1.8691-2.3613s-1.8691.8613-1.8691 2.3613c0 1.4941.6738 2.3613 1.8691 2.3613s1.8691-.8672 1.8691-2.3613zm2.5054-3.1582h.9609v.9961h.0938c.2871-.7031.9199-1.1074 1.7637-1.1074.8555 0 1.4531.4512 1.7461 1.1074h.0938c.3398-.668 1.0605-1.1074 1.9336-1.1074 1.2891 0 2.0098.7383 2.0098 2.0625v4.3652h-1.0078v-4.1309c0-.9316-.4395-1.3887-1.3301-1.3887-.8789 0-1.4648.6562-1.4648 1.459v4.0606h-1.0078v-4.2891c0-.75-.5215-1.2305-1.3184-1.2305-.8262 0-1.4648.7148-1.4648 1.6055v3.9141h-1.0078v-6.3164zm15.5127 4.6816c-.293 1.0781-1.2773 1.7461-2.6602 1.7461-1.752 0-2.8477-1.2656-2.8477-3.2637 0-1.9863 1.1133-3.2754 2.8477-3.2754 1.7051 0 2.7422 1.2129 2.7422 3.1758v.3867h-4.541v.0469c.0527 1.248.75 2.0391 1.8223 2.0391.8145 0 1.3652-.2988 1.6289-.8555zm-4.459-2.0449h3.4805c-.0234-1.1191-.6914-1.8574-1.6934-1.8574-1.0078 0-1.7109.7383-1.7871 1.8574z" fill="#fff"/></svg>