<svg height="44" viewBox="0 0 43 44" width="43" xmlns="http://www.w3.org/2000/svg"><path d="m11.7153 19.6836h.961v.937h.094c.187-.615.914-1.048 1.752-1.048.164 0 .375.011.504.029v1.008c-.082-.024-.446-.059-.645-.059-.961 0-1.658.645-1.658 1.535v3.914h-1.008zm28.135-.111c1.324 0 2.244.656 2.379 1.693h-.996c-.135-.504-.627-.838-1.389-.838-.75 0-1.336.381-1.336.943 0 .434.352.704 1.096.885l.973.235c1.189.287 1.763.802 1.763 1.711 0 1.13-1.095 1.91-2.531 1.91-1.406 0-2.373-.674-2.484-1.723h1.037c.17.533.674.873 1.482.873.85 0 1.459-.404 1.459-.984 0-.434-.328-.727-1.002-.891l-1.084-.264c-1.183-.287-1.722-.796-1.722-1.71 0-1.049 1.013-1.84 2.355-1.84zm-6.665 5.631c-1.155 0-1.846-.885-1.846-2.362 0-1.471.697-2.361 1.846-2.361 1.142 0 1.857.914 1.857 2.361 0 1.459-.709 2.362-1.857 2.362zm1.834-8.028v3.504h-.088c-.358-.691-1.102-1.107-1.981-1.107-1.605 0-2.654 1.289-2.654 3.269 0 1.987 1.037 3.27 2.654 3.27.873 0 1.623-.416 2.022-1.119h.094v1.007h.961v-8.824zm-9.001 8.028c-1.195 0-1.869-.868-1.869-2.362 0-1.5.674-2.361 1.869-2.361 1.196 0 1.869.861 1.869 2.361 0 1.494-.673 2.362-1.869 2.362zm0-5.631c-1.799 0-2.912 1.236-2.912 3.269 0 2.028 1.113 3.27 2.912 3.27s2.912-1.242 2.912-3.27c0-2.033-1.113-3.269-2.912-3.269zm-17.071 6.427h1.008v-6.316h-1.008zm-.199-8.238c0-.387.317-.703.703-.703.387 0 .703.316.703.703s-.316.703-.703.703c-.386 0-.703-.316-.703-.703zm-6.137 4.922 1.324-3.773h.093l1.325 3.773zm1.892-5.139h-1.043l-3.117 8.455h1.107l.85-2.42h3.363l.85 2.42h1.107zm14.868 4.5h-1.864v-3.562h1.864c1.224 0 1.898.639 1.898 1.799 0 1.119-.697 1.763-1.898 1.763zm.275-4.5h-3.193v8.455h1.054v-3.017h2.127c1.588 0 2.719-1.119 2.719-2.701 0-1.612-1.107-2.737-2.707-2.737z" fill="#fff" fill-rule="evenodd"/></svg>